# Blender 3.4.1
# www.blender.org
mtllib sample.mtl
o Cube
v 1.194098 1.194098 -1.194098
v 1.194098 -1.194098 -1.194098
v 1.194098 1.194098 1.194098
v 1.194098 -1.194098 1.194098
v -1.194098 1.194098 -1.194098
v -1.194098 -1.194098 -1.194098
v -1.194098 1.194098 1.194098
v -1.194098 -1.194098 1.194098
v -10.008136 0.000000 -0.068829
v -10.008136 0.000000 -0.068829
v -10.008136 0.000000 -3.897151
v -10.008136 0.000000 -3.897151
v -3.648803 0.000000 -0.068829
v -3.648803 0.000000 -0.068829
v -3.648803 0.000000 -3.897151
v -3.648803 0.000000 -3.897151
v -10.293323 0.000000 -2.331137
v -10.293323 3.568093 -2.331137
v -10.293323 0.000000 -3.421289
v -10.293323 3.568093 -3.421289
v -5.133554 0.000000 -2.331137
v -5.133554 3.568093 -2.331137
v -5.133554 0.000000 -3.421289
v -5.133554 3.568093 -3.421289
v -10.551417 0.000000 0.233000
v -10.551417 3.568093 0.233000
v -10.815621 0.000000 -0.824653
v -10.815621 3.568093 -0.824653
v -5.545473 0.000000 -1.017497
v -5.545473 3.568093 -1.017497
v -5.809677 0.000000 -2.075150
v -5.809677 3.568093 -2.075150
v -10.180386 0.000000 2.783244
v -10.180386 3.568093 2.783244
v -10.693041 0.000000 1.821154
v -10.693041 3.568093 1.821154
v -5.626744 0.000000 0.356811
v -5.626744 3.568093 0.356811
v -6.139400 0.000000 -0.605279
v -6.139400 3.568093 -0.605279
v -9.202350 0.000000 5.167538
v -9.202350 3.568093 5.167538
v -9.932890 0.000000 4.358375
v -9.932890 3.568093 4.358375
v -5.372523 0.000000 1.709844
v -5.372523 3.568093 1.709844
v -6.103062 0.000000 0.900681
v -6.103062 3.568093 0.900681
v -7.675626 0.000000 7.243718
v -7.675626 3.568093 7.243718
v -8.580492 0.000000 6.635728
v -8.580492 3.568093 6.635728
v -4.797966 0.000000 2.960928
v -4.797966 3.568093 2.960928
v -5.702831 0.000000 2.352938
v -5.702831 3.568093 2.352938
v -5.691245 0.000000 8.887993
v -5.691245 3.568093 8.887993
v -6.716484 0.000000 8.517427
v -6.716484 3.568093 8.517427
v -3.937330 0.000000 4.035468
v -3.937330 3.568093 4.035468
v -4.962569 0.000000 3.664902
v -4.962569 3.568093 3.664902
v -3.367524 0.000000 10.002323
v -3.367524 3.568093 10.002323
v -4.452007 0.000000 9.891276
v -4.452007 3.568093 9.891276
v -2.841933 0.000000 4.869393
v -2.841933 3.568093 4.869393
v -3.926415 0.000000 4.758347
v -3.926415 3.568093 4.758347
v -0.843016 0.000000 10.520267
v -0.843016 3.568093 10.520267
v -1.922080 0.000000 10.675361
v -1.922080 3.568093 10.675361
v -1.577085 0.000000 5.412982
v -1.577085 3.568093 5.412982
v -2.656150 0.000000 5.568076
v -2.656150 3.568093 5.568076
v 1.731758 0.000000 10.410943
v 1.731758 3.568093 10.410943
v 0.722450 0.000000 10.822928
v 0.722450 3.568093 10.822928
v -0.218205 0.000000 5.633822
v -0.218205 3.568093 5.633822
v -1.227512 0.000000 6.045810
v -1.227512 3.568093 6.045810
v 4.203276 0.000000 9.680867
v 4.203276 3.568093 9.680867
v 3.323905 0.000000 10.325181
v 3.323905 3.568093 10.325181
v 1.153686 0.000000 5.518747
v 1.153686 3.568093 5.518747
v 0.274317 0.000000 6.163064
v 0.274317 3.568093 6.163064
v 6.424174 0.000000 8.373572
v 6.424174 3.568093 8.373572
v 5.727172 0.000000 9.211797
v 5.727172 3.568093 9.211797
v 2.456789 0.000000 5.074618
v 2.456789 3.568093 5.074618
v 1.759789 0.000000 5.912846
v 1.759789 3.568093 5.912846
v 8.262032 0.000000 6.567004
v 8.262032 3.568093 6.567004
v 7.788958 0.000000 7.549161
v 7.788958 3.568093 7.549161
v 3.613406 0.000000 4.327916
v 3.613406 3.568093 4.327916
v 3.140334 0.000000 5.310076
v 3.140334 3.568093 5.310076
v 9.607267 0.000000 4.368880
v 9.607267 3.568093 4.368880
v 9.386329 0.000000 5.436409
v 9.386329 3.568093 5.436409
v 4.554575 0.000000 3.323163
v 4.554575 3.568093 3.323163
v 4.333638 0.000000 4.390694
v 4.333638 3.568093 4.390694
vn -0.0000 1.0000 -0.0000
vn -0.0000 -0.0000 1.0000
vn -1.0000 -0.0000 -0.0000
vn -0.0000 -1.0000 -0.0000
vn 1.0000 -0.0000 -0.0000
vn -0.0000 -0.0000 -1.0000
vn 0.9702 -0.0000 -0.2424
vn 0.2424 -0.0000 0.9702
vn -0.9702 -0.0000 0.2424
vn -0.2424 -0.0000 -0.9702
vn 0.8825 -0.0000 -0.4703
vn 0.4703 -0.0000 0.8825
vn -0.8825 -0.0000 0.4703
vn -0.4703 -0.0000 -0.8825
vn 0.7422 -0.0000 -0.6701
vn 0.6701 -0.0000 0.7422
vn -0.7422 -0.0000 0.6701
vn -0.6701 -0.0000 -0.7422
vn 0.5577 -0.0000 -0.8300
vn 0.8300 -0.0000 0.5577
vn -0.5577 -0.0000 0.8300
vn -0.8300 -0.0000 -0.5577
vn 0.3399 -0.0000 -0.9405
vn 0.9405 -0.0000 0.3399
vn -0.3399 -0.0000 0.9405
vn -0.9405 -0.0000 -0.3399
vn 0.1019 -0.0000 -0.9948
vn 0.9948 -0.0000 0.1019
vn -0.1019 -0.0000 0.9948
vn -0.9948 -0.0000 -0.1019
vn -0.1423 -0.0000 -0.9898
vn 0.9898 -0.0000 -0.1423
vn 0.1423 -0.0000 0.9898
vn -0.9898 -0.0000 0.1423
vn -0.3779 -0.0000 -0.9258
vn 0.9258 -0.0000 -0.3779
vn 0.3779 -0.0000 0.9258
vn -0.9258 -0.0000 0.3779
vn -0.5910 -0.0000 -0.8066
vn 0.8066 -0.0000 -0.5910
vn 0.5910 -0.0000 0.8066
vn -0.8066 -0.0000 0.5910
vn -0.7689 -0.0000 -0.6394
vn 0.6394 -0.0000 -0.7689
vn 0.7689 -0.0000 0.6394
vn -0.6394 -0.0000 0.7689
vn -0.9009 -0.0000 -0.4340
vn 0.4340 -0.0000 -0.9009
vn 0.9009 -0.0000 0.4340
vn -0.4340 -0.0000 0.9009
vn 0.9792 -0.0000 0.2027
vn -0.2027 -0.0000 0.9792
vn -0.9792 -0.0000 -0.2027
vn 0.2027 -0.0000 -0.9792
vt 0.625000 0.500000
vt 0.375000 0.500000
vt 0.625000 0.750000
vt 0.375000 0.750000
vt 0.875000 0.500000
vt 0.625000 0.250000
vt 0.125000 0.500000
vt 0.375000 0.250000
vt 0.875000 0.750000
vt 0.625000 1.000000
vt 0.625000 0.000000
vt 0.375000 1.000000
vt 0.375000 0.000000
vt 0.125000 0.750000
vt 0.375000 0.000000
vt 0.375000 1.000000
vt 0.125000 0.750000
vt 0.625000 0.000000
vt 0.625000 1.000000
vt 0.875000 0.750000
vt 0.375000 0.250000
vt 0.125000 0.500000
vt 0.625000 0.250000
vt 0.875000 0.500000
vt 0.375000 0.750000
vt 0.625000 0.750000
vt 0.375000 0.500000
vt 0.625000 0.500000
vt 0.375000 0.000000
vt 0.375000 1.000000
vt 0.125000 0.750000
vt 0.625000 0.000000
vt 0.625000 1.000000
vt 0.875000 0.750000
vt 0.375000 0.250000
vt 0.125000 0.500000
vt 0.625000 0.250000
vt 0.875000 0.500000
vt 0.375000 0.750000
vt 0.625000 0.750000
vt 0.375000 0.500000
vt 0.625000 0.500000
vt 0.375000 0.000000
vt 0.375000 1.000000
vt 0.125000 0.750000
vt 0.625000 0.000000
vt 0.625000 1.000000
vt 0.875000 0.750000
vt 0.375000 0.250000
vt 0.125000 0.500000
vt 0.625000 0.250000
vt 0.875000 0.500000
vt 0.375000 0.750000
vt 0.625000 0.750000
vt 0.375000 0.500000
vt 0.625000 0.500000
vt 0.375000 0.000000
vt 0.375000 1.000000
vt 0.125000 0.750000
vt 0.625000 0.000000
vt 0.625000 1.000000
vt 0.875000 0.750000
vt 0.375000 0.250000
vt 0.125000 0.500000
vt 0.625000 0.250000
vt 0.875000 0.500000
vt 0.375000 0.750000
vt 0.625000 0.750000
vt 0.375000 0.500000
vt 0.625000 0.500000
vt 0.375000 0.000000
vt 0.375000 1.000000
vt 0.125000 0.750000
vt 0.625000 0.000000
vt 0.625000 1.000000
vt 0.875000 0.750000
vt 0.375000 0.250000
vt 0.125000 0.500000
vt 0.625000 0.250000
vt 0.875000 0.500000
vt 0.375000 0.750000
vt 0.625000 0.750000
vt 0.375000 0.500000
vt 0.625000 0.500000
vt 0.375000 0.000000
vt 0.375000 1.000000
vt 0.125000 0.750000
vt 0.625000 0.000000
vt 0.625000 1.000000
vt 0.875000 0.750000
vt 0.375000 0.250000
vt 0.125000 0.500000
vt 0.625000 0.250000
vt 0.875000 0.500000
vt 0.375000 0.750000
vt 0.625000 0.750000
vt 0.375000 0.500000
vt 0.625000 0.500000
vt 0.375000 0.000000
vt 0.375000 1.000000
vt 0.125000 0.750000
vt 0.625000 0.000000
vt 0.625000 1.000000
vt 0.875000 0.750000
vt 0.375000 0.250000
vt 0.125000 0.500000
vt 0.625000 0.250000
vt 0.875000 0.500000
vt 0.375000 0.750000
vt 0.625000 0.750000
vt 0.375000 0.500000
vt 0.625000 0.500000
vt 0.375000 0.000000
vt 0.375000 1.000000
vt 0.125000 0.750000
vt 0.625000 0.000000
vt 0.625000 1.000000
vt 0.875000 0.750000
vt 0.375000 0.250000
vt 0.125000 0.500000
vt 0.625000 0.250000
vt 0.875000 0.500000
vt 0.375000 0.750000
vt 0.625000 0.750000
vt 0.375000 0.500000
vt 0.625000 0.500000
vt 0.375000 0.000000
vt 0.375000 1.000000
vt 0.125000 0.750000
vt 0.625000 0.000000
vt 0.625000 1.000000
vt 0.875000 0.750000
vt 0.375000 0.250000
vt 0.125000 0.500000
vt 0.625000 0.250000
vt 0.875000 0.500000
vt 0.375000 0.750000
vt 0.625000 0.750000
vt 0.375000 0.500000
vt 0.625000 0.500000
vt 0.375000 0.000000
vt 0.375000 1.000000
vt 0.125000 0.750000
vt 0.625000 0.000000
vt 0.625000 1.000000
vt 0.875000 0.750000
vt 0.375000 0.250000
vt 0.125000 0.500000
vt 0.625000 0.250000
vt 0.875000 0.500000
vt 0.375000 0.750000
vt 0.625000 0.750000
vt 0.375000 0.500000
vt 0.625000 0.500000
vt 0.375000 0.000000
vt 0.375000 1.000000
vt 0.125000 0.750000
vt 0.625000 0.000000
vt 0.625000 1.000000
vt 0.875000 0.750000
vt 0.375000 0.250000
vt 0.125000 0.500000
vt 0.625000 0.250000
vt 0.875000 0.500000
vt 0.375000 0.750000
vt 0.625000 0.750000
vt 0.375000 0.500000
vt 0.625000 0.500000
vt 0.375000 0.000000
vt 0.375000 1.000000
vt 0.125000 0.750000
vt 0.625000 0.000000
vt 0.625000 1.000000
vt 0.875000 0.750000
vt 0.375000 0.250000
vt 0.125000 0.500000
vt 0.625000 0.250000
vt 0.875000 0.500000
vt 0.375000 0.750000
vt 0.625000 0.750000
vt 0.375000 0.500000
vt 0.625000 0.500000
vt 0.375000 0.000000
vt 0.375000 1.000000
vt 0.125000 0.750000
vt 0.625000 0.000000
vt 0.625000 1.000000
vt 0.875000 0.750000
vt 0.375000 0.250000
vt 0.125000 0.500000
vt 0.625000 0.250000
vt 0.875000 0.500000
vt 0.375000 0.750000
vt 0.625000 0.750000
vt 0.375000 0.500000
vt 0.625000 0.500000
vt 0.375000 0.000000
vt 0.375000 1.000000
vt 0.125000 0.750000
vt 0.625000 0.000000
vt 0.625000 1.000000
vt 0.875000 0.750000
vt 0.375000 0.250000
vt 0.125000 0.500000
vt 0.625000 0.250000
vt 0.875000 0.500000
vt 0.375000 0.750000
vt 0.625000 0.750000
vt 0.375000 0.500000
vt 0.625000 0.500000
s 0
usemtl Material
f 1/1/1 5/5/1 7/9/1 3/3/1
f 4/4/2 3/3/2 7/10/2 8/12/2
f 8/13/3 7/11/3 5/6/3 6/8/3
f 6/7/4 2/2/4 4/4/4 8/14/4
f 2/2/5 1/1/5 3/3/5 4/4/5
f 6/8/6 5/6/6 1/1/6 2/2/6
f 9/15/1 10/18/1 12/23/1 11/21/1
f 11/21/1 12/23/1 16/28/1 15/27/1
f 15/27/1 16/28/1 14/26/1 13/25/1
f 13/25/1 14/26/1 10/19/1 9/16/1
f 11/22/4 15/27/4 13/25/4 9/17/4
f 16/28/1 12/24/1 10/20/1 14/26/1
f 17/29/5 19/35/5 20/37/5 18/32/5
f 19/35/2 23/41/2 24/42/2 20/37/2
f 23/41/3 21/39/3 22/40/3 24/42/3
f 21/39/6 17/30/6 18/33/6 22/40/6
f 19/36/1 17/31/1 21/39/1 23/41/1
f 24/42/4 22/40/4 18/34/4 20/38/4
f 25/43/7 27/49/7 28/51/7 26/46/7
f 27/49/8 31/55/8 32/56/8 28/51/8
f 31/55/9 29/53/9 30/54/9 32/56/9
f 29/53/10 25/44/10 26/47/10 30/54/10
f 27/50/1 25/45/1 29/53/1 31/55/1
f 32/56/4 30/54/4 26/48/4 28/52/4
f 33/57/11 35/63/11 36/65/11 34/60/11
f 35/63/12 39/69/12 40/70/12 36/65/12
f 39/69/13 37/67/13 38/68/13 40/70/13
f 37/67/14 33/58/14 34/61/14 38/68/14
f 35/64/1 33/59/1 37/67/1 39/69/1
f 40/70/4 38/68/4 34/62/4 36/66/4
f 41/71/15 43/77/15 44/79/15 42/74/15
f 43/77/16 47/83/16 48/84/16 44/79/16
f 47/83/17 45/81/17 46/82/17 48/84/17
f 45/81/18 41/72/18 42/75/18 46/82/18
f 43/78/1 41/73/1 45/81/1 47/83/1
f 48/84/4 46/82/4 42/76/4 44/80/4
f 49/85/19 51/91/19 52/93/19 50/88/19
f 51/91/20 55/97/20 56/98/20 52/93/20
f 55/97/21 53/95/21 54/96/21 56/98/21
f 53/95/22 49/86/22 50/89/22 54/96/22
f 51/92/1 49/87/1 53/95/1 55/97/1
f 56/98/4 54/96/4 50/90/4 52/94/4
f 57/99/23 59/105/23 60/107/23 58/102/23
f 59/105/24 63/111/24 64/112/24 60/107/24
f 63/111/25 61/109/25 62/110/25 64/112/25
f 61/109/26 57/100/26 58/103/26 62/110/26
f 59/106/1 57/101/1 61/109/1 63/111/1
f 64/112/4 62/110/4 58/104/4 60/108/4
f 65/113/27 67/119/27 68/121/27 66/116/27
f 67/119/28 71/125/28 72/126/28 68/121/28
f 71/125/29 69/123/29 70/124/29 72/126/29
f 69/123/30 65/114/30 66/117/30 70/124/30
f 67/120/1 65/115/1 69/123/1 71/125/1
f 72/126/4 70/124/4 66/118/4 68/122/4
f 73/127/31 75/133/31 76/135/31 74/130/31
f 75/133/32 79/139/32 80/140/32 76/135/32
f 79/139/33 77/137/33 78/138/33 80/140/33
f 77/137/34 73/128/34 74/131/34 78/138/34
f 75/134/1 73/129/1 77/137/1 79/139/1
f 80/140/4 78/138/4 74/132/4 76/136/4
f 81/141/35 83/147/35 84/149/35 82/144/35
f 83/147/36 87/153/36 88/154/36 84/149/36
f 87/153/37 85/151/37 86/152/37 88/154/37
f 85/151/38 81/142/38 82/145/38 86/152/38
f 83/148/1 81/143/1 85/151/1 87/153/1
f 88/154/4 86/152/4 82/146/4 84/150/4
f 89/155/39 91/161/39 92/163/39 90/158/39
f 91/161/40 95/167/40 96/168/40 92/163/40
f 95/167/41 93/165/41 94/166/41 96/168/41
f 93/165/42 89/156/42 90/159/42 94/166/42
f 91/162/1 89/157/1 93/165/1 95/167/1
f 96/168/4 94/166/4 90/160/4 92/164/4
f 97/169/43 99/175/43 100/177/43 98/172/43
f 99/175/44 103/181/44 104/182/44 100/177/44
f 103/181/45 101/179/45 102/180/45 104/182/45
f 101/179/46 97/170/46 98/173/46 102/180/46
f 99/176/1 97/171/1 101/179/1 103/181/1
f 104/182/4 102/180/4 98/174/4 100/178/4
f 105/183/47 107/189/47 108/191/47 106/186/47
f 107/189/48 111/195/48 112/196/48 108/191/48
f 111/195/49 109/193/49 110/194/49 112/196/49
f 109/193/50 105/184/50 106/187/50 110/194/50
f 107/190/1 105/185/1 109/193/1 111/195/1
f 112/196/4 110/194/4 106/188/4 108/192/4
f 113/197/51 114/200/51 116/205/51 115/203/51
f 115/203/52 116/205/52 120/210/52 119/209/52
f 119/209/53 120/210/53 118/208/53 117/207/53
f 117/207/54 118/208/54 114/201/54 113/198/54
f 115/204/4 119/209/4 117/207/4 113/199/4
f 120/210/1 116/206/1 114/202/1 118/208/1
